<svg width="157" height="58" viewBox="0 0 157 58" fill="none" xmlns="http://www.w3.org/2000/svg">
<g clip-path="url(#clip0_8615_14351)">
<path d="M66.7727 18.1932L66.7229 18.1473C63.8714 15.439 59.9238 14.0423 55.9055 14.3203L0 18.1932L55.8399 22.1198C59.916 22.4071 63.9173 20.971 66.7793 18.1932" fill="#E12726"/>
<path d="M127.3 58.0013C127.312 58.0014 127.325 57.998 127.336 57.9915C127.346 57.985 127.355 57.9757 127.361 57.9646L131.163 51.171C131.303 50.9235 131.507 50.7181 131.753 50.5764C131.999 50.4347 132.279 50.3619 132.563 50.3657C132.848 50.3625 133.129 50.4361 133.375 50.579C133.622 50.7219 133.825 50.9287 133.964 51.1776L137.766 57.9698C137.771 57.9794 137.778 57.9874 137.788 57.9929C137.797 57.9985 137.807 58.0014 137.818 58.0013H139.761C139.772 58.0012 139.782 57.9984 139.791 57.9931C139.8 57.9878 139.808 57.9803 139.813 57.9712C139.819 57.9621 139.822 57.9518 139.822 57.9412C139.822 57.9306 139.82 57.9202 139.815 57.9108L135.566 50.329C135.267 49.7958 134.831 49.3529 134.302 49.0469C133.773 48.7408 133.172 48.583 132.561 48.59H132.554C131.944 48.582 131.343 48.7385 130.814 49.0431C130.285 49.3477 129.848 49.7892 129.548 50.3211L125.325 57.8951C125.319 57.9059 125.316 57.9181 125.317 57.9304C125.317 57.9427 125.32 57.9548 125.326 57.9654C125.333 57.9761 125.341 57.9849 125.352 57.9912C125.363 57.9975 125.375 58.001 125.387 58.0013H127.3Z" fill="#929497"/>
<path d="M28.4103 48.59C28.7639 48.5887 29.1143 48.6575 29.4412 48.7923C29.7682 48.9272 30.0652 49.1253 30.3153 49.3755C30.5654 49.6256 30.7635 49.9228 30.8982 50.2498C31.033 50.5769 31.1018 50.9274 31.1006 51.2812V55.3088C31.1019 55.6627 31.0333 56.0133 30.8986 56.3405C30.7639 56.6677 30.5658 56.965 30.3158 57.2153C30.0657 57.4656 29.7686 57.6639 29.4416 57.7988C29.1145 57.9337 28.764 58.0025 28.4103 58.0013H20.3474C19.994 58.0015 19.644 57.9319 19.3176 57.7967C18.9911 57.6614 18.6945 57.463 18.4447 57.2129C18.1949 56.9628 17.9969 56.6659 17.862 56.3392C17.7271 56.0124 17.6579 55.6623 17.6584 55.3088V51.2812C17.6581 50.9278 17.7274 50.5778 17.8624 50.2512C17.9974 49.9246 18.1954 49.6278 18.4452 49.3779C18.6949 49.1279 18.9915 48.9297 19.3179 48.7945C19.6443 48.6593 19.9941 48.5898 20.3474 48.59H28.4103ZM29.2258 51.0084C29.2269 50.9026 29.2067 50.7977 29.1664 50.6999C29.1261 50.6021 29.0664 50.5134 28.9911 50.4392C28.9172 50.3616 28.828 50.3003 28.7291 50.259C28.6303 50.2177 28.524 50.1973 28.4169 50.1992H20.3539C20.1405 50.2022 19.9366 50.2885 19.7858 50.4396C19.635 50.5908 19.549 50.7948 19.5463 51.0084V55.5816C19.5487 55.7954 19.6345 55.9997 19.7853 56.1512C19.9362 56.3026 20.1403 56.389 20.3539 56.3921H28.4169C28.524 56.394 28.6303 56.3736 28.7291 56.3323C28.828 56.291 28.9172 56.2296 28.9911 56.1521C29.0666 56.0777 29.1263 55.9888 29.1666 55.8908C29.207 55.7928 29.2271 55.6876 29.2258 55.5816V51.0084ZM49.3109 56.3921C49.3221 56.3917 49.3332 56.3936 49.3435 56.3976C49.3539 56.4017 49.3633 56.4078 49.3712 56.4157C49.3787 56.4223 49.3848 56.4303 49.3891 56.4394C49.3934 56.4484 49.3958 56.4582 49.3962 56.4682V57.9108C49.3963 57.9222 49.3942 57.9336 49.39 57.9442C49.3857 57.9548 49.3793 57.9644 49.3712 57.9725C49.3633 57.9803 49.3539 57.9865 49.3435 57.9905C49.3332 57.9946 49.3221 57.9965 49.3109 57.9961H38.6456C38.2921 57.9971 37.9419 57.9282 37.6151 57.7933C37.2883 57.6584 36.9914 57.4602 36.7415 57.2101C36.4915 56.9599 36.2935 56.6628 36.1588 56.3359C36.0242 56.0089 35.9555 55.6585 35.9567 55.3049V51.2785C35.9558 50.925 36.0247 50.5748 36.1596 50.2479C36.2944 49.9211 36.4924 49.6242 36.7422 49.3741C36.9921 49.124 37.2888 48.9258 37.6155 48.7908C37.9421 48.6558 38.2922 48.5866 38.6456 48.5873H49.3109C49.3333 48.5871 49.355 48.5956 49.3712 48.6109C49.3793 48.619 49.3857 48.6286 49.39 48.6392C49.3942 48.6498 49.3963 48.6612 49.3962 48.6726V50.1218C49.3956 50.1315 49.3931 50.1411 49.3889 50.1499C49.3846 50.1587 49.3786 50.1665 49.3712 50.1729C49.3633 50.1808 49.3539 50.187 49.3435 50.191C49.3332 50.1951 49.3221 50.197 49.3109 50.1965H38.6456C38.5387 50.1945 38.4325 50.2148 38.3339 50.2562C38.2352 50.2975 38.1463 50.3589 38.0727 50.4366C37.9971 50.5107 37.9372 50.5993 37.8967 50.6971C37.8561 50.7949 37.8357 50.8999 37.8367 51.0057V55.579C37.8359 55.6846 37.8564 55.7894 37.8969 55.8869C37.9375 55.9845 37.9972 56.0729 38.0727 56.1468C38.1461 56.2247 38.235 56.2862 38.3337 56.3276C38.4324 56.3689 38.5386 56.3891 38.6456 56.3869L49.3109 56.3921ZM73.1195 52.4917H84.2961C84.3073 52.4913 84.3184 52.4932 84.3287 52.4972C84.3391 52.5013 84.3485 52.5074 84.3564 52.5153C84.3643 52.5234 84.3705 52.5331 84.3745 52.5437C84.3786 52.5543 84.3805 52.5656 84.38 52.5769V54.0196C84.3804 54.0307 84.3785 54.0418 84.3744 54.0521C84.3703 54.0625 84.3641 54.0719 84.3563 54.0798C84.3484 54.0876 84.339 54.0938 84.3287 54.0979C84.3183 54.102 84.3072 54.1039 84.2961 54.1035H73.1195V55.579C73.1182 55.6847 73.1382 55.7895 73.1783 55.8873C73.2183 55.9851 73.2777 56.0738 73.3528 56.1482C73.4268 56.2257 73.516 56.2871 73.6148 56.3284C73.7137 56.3697 73.82 56.39 73.9271 56.3882H84.5845C84.5957 56.3878 84.6068 56.3896 84.6172 56.3937C84.6275 56.3978 84.637 56.4039 84.6449 56.4118C84.6521 56.4182 84.6579 56.4261 84.662 56.4349C84.666 56.4437 84.6682 56.4532 84.6685 56.4629V57.9056C84.6689 57.9169 84.667 57.9282 84.663 57.9388C84.6589 57.9494 84.6528 57.9591 84.6449 57.9672C84.637 57.9751 84.6275 57.9812 84.6172 57.9853C84.6068 57.9893 84.5957 57.9912 84.5845 57.9908H73.9323C73.579 57.992 73.229 57.9233 72.9024 57.7886C72.5758 57.654 72.279 57.456 72.0292 57.2061C71.7794 56.9562 71.5814 56.6593 71.4468 56.3325C71.3122 56.0058 71.2435 55.6556 71.2447 55.3022V51.289C71.2435 50.9357 71.3122 50.5856 71.4468 50.2589C71.5815 49.9323 71.7794 49.6355 72.0293 49.3857C72.2791 49.1359 72.5759 48.938 72.9025 48.8035C73.2291 48.6689 73.5791 48.6004 73.9323 48.6018H84.5898C84.612 48.601 84.6337 48.609 84.6501 48.6241C84.658 48.6322 84.6642 48.6419 84.6682 48.6525C84.6723 48.663 84.6741 48.6744 84.6737 48.6857V50.1283C84.6736 50.1382 84.6714 50.148 84.6674 50.157C84.6633 50.1661 84.6574 50.1742 84.6501 50.1808C84.6337 50.1958 84.612 50.2038 84.5898 50.2031H73.9323C73.8252 50.2012 73.7189 50.2216 73.6201 50.2629C73.5212 50.3042 73.432 50.3656 73.3581 50.4431C73.283 50.5174 73.2236 50.6062 73.1835 50.7039C73.1434 50.8017 73.1234 50.9066 73.1247 51.0123L73.1195 52.4917ZM89.6898 48.7067C89.6891 48.6954 89.6907 48.6842 89.6945 48.6736C89.6984 48.663 89.7043 48.6532 89.712 48.645C89.7258 48.6307 89.7446 48.6223 89.7645 48.6214H103.006C103.026 48.6223 103.045 48.6307 103.058 48.645C103.074 48.6618 103.082 48.6839 103.082 48.7067V50.1493C103.081 50.1687 103.072 50.187 103.058 50.2005C103.045 50.2144 103.026 50.2224 103.006 50.2228H97.3213V57.9134C97.3218 57.9248 97.3199 57.9361 97.3158 57.9467C97.3118 57.9573 97.3056 57.9669 97.2977 57.9751C97.2911 57.9824 97.283 57.9883 97.274 57.9923C97.2649 57.9964 97.2552 57.9986 97.2453 57.9987H95.5304C95.5191 57.9993 95.5078 57.9974 95.4972 57.9934C95.4866 57.9893 95.477 57.983 95.4689 57.975C95.4609 57.9669 95.4547 57.9573 95.4506 57.9467C95.4465 57.9361 95.4447 57.9248 95.4452 57.9134V50.2254H89.7645C89.7448 50.225 89.726 50.2171 89.712 50.2031C89.705 50.1966 89.6994 50.1887 89.6955 50.1799C89.6917 50.1711 89.6897 50.1616 89.6898 50.152V48.7067Z" fill="white"/>
<path d="M121.559 57.9266C121.558 57.9362 121.556 57.9458 121.552 57.9546C121.548 57.9634 121.542 57.9712 121.535 57.9777C121.528 57.9849 121.52 57.9907 121.511 57.9948C121.502 57.9988 121.492 58.001 121.483 58.0013H110.828C110.474 58.0025 110.124 57.9338 109.798 57.7991C109.471 57.6644 109.175 57.4664 108.925 57.2165C108.675 56.9666 108.477 56.6697 108.343 56.3429C108.209 56.0162 108.14 55.6661 108.141 55.3127V48.687C108.141 48.6757 108.143 48.6644 108.147 48.6538C108.151 48.6432 108.157 48.6335 108.165 48.6254C108.178 48.6113 108.197 48.6029 108.216 48.6018H109.936C109.959 48.6018 109.98 48.6102 109.996 48.6254C110.004 48.6335 110.011 48.6432 110.015 48.6538C110.019 48.6644 110.021 48.6757 110.02 48.687V55.5855C110.019 55.6913 110.039 55.7962 110.079 55.894C110.12 55.9918 110.179 56.0805 110.255 56.1547C110.329 56.232 110.418 56.2931 110.516 56.3344C110.615 56.3757 110.721 56.3963 110.828 56.3947H121.483C121.502 56.3954 121.521 56.4034 121.535 56.4172C121.549 56.4311 121.558 56.4497 121.559 56.4695V57.9266ZM156.999 51.2903V51.4215C157.004 51.7706 156.939 52.1171 156.807 52.4402C156.674 52.7632 156.478 53.0561 156.229 53.3009C156.478 53.546 156.674 53.8391 156.807 54.1623C156.939 54.4856 157.004 54.8323 156.999 55.1816V55.3219C157.005 55.6747 156.938 56.0249 156.802 56.3507C156.667 56.6766 156.466 56.971 156.212 57.2157C155.966 57.4691 155.671 57.6696 155.345 57.8049C155.018 57.9402 154.668 58.0075 154.315 58.0026H143.66C143.649 58.0031 143.638 58.0012 143.627 57.9971C143.616 57.9931 143.607 57.9869 143.599 57.979C143.591 57.9726 143.585 57.9647 143.581 57.9559C143.577 57.9471 143.575 57.9376 143.575 57.9279V48.687C143.574 48.6757 143.576 48.6643 143.58 48.6537C143.584 48.6431 143.591 48.6335 143.599 48.6255C143.607 48.6174 143.616 48.6112 143.627 48.6071C143.637 48.603 143.649 48.6012 143.66 48.6018H154.315C155.027 48.6038 155.709 48.8878 156.213 49.3916C156.716 49.8954 157 50.578 157.001 51.2903M145.455 50.2175V52.5022H154.315C154.528 52.4998 154.732 52.4139 154.883 52.2629C155.034 52.1119 155.12 51.9078 155.123 51.6943V51.0175C155.124 50.9121 155.103 50.8075 155.062 50.7104C155.02 50.6134 154.959 50.5259 154.883 50.4536C154.809 50.3781 154.72 50.3183 154.623 50.2778C154.525 50.2372 154.421 50.2167 154.315 50.2175H145.455ZM155.123 55.5855V54.918C155.125 54.811 155.104 54.7048 155.063 54.6061C155.022 54.5074 154.96 54.4184 154.883 54.3448C154.809 54.2696 154.72 54.2101 154.623 54.1697C154.525 54.1294 154.421 54.1091 154.315 54.1101H145.455V56.3934H154.315C154.421 56.3944 154.525 56.3741 154.623 56.3338C154.72 56.2934 154.809 56.2339 154.883 56.1586C154.96 56.085 155.022 55.9961 155.063 55.8974C155.104 55.7987 155.125 55.6925 155.123 55.5855Z" fill="#929497"/>
<path d="M53.9245 36.3169H66.837L60.3814 30.5318L53.9245 36.3169ZM93.7291 18.1945H74.1591L94.3177 36.3169H103.064L89.3672 24.011H93.7291C95.6989 24.009 97.5875 23.2252 98.9803 21.8319C100.373 20.4385 101.157 18.5493 101.159 16.5787V7.4323C101.157 5.46177 100.373 3.57255 98.9803 2.17917C97.5875 0.785796 95.6989 0.00208301 93.7291 0L53.9179 0L60.384 5.81652H93.7291C94.1572 5.81722 94.5677 5.98767 94.8704 6.29054C95.1732 6.59341 95.3436 7.00398 95.3443 7.4323V16.5787C95.3439 17.0072 95.1736 17.4179 94.8708 17.7209C94.568 18.0238 94.1573 18.1942 93.7291 18.1945ZM9.77645 54.6006H10.5893C11.1456 54.6006 11.6792 54.3795 12.0726 53.986C12.466 53.5924 12.687 53.0587 12.687 52.5022V50.7002C12.687 50.1436 12.466 49.6099 12.0726 49.2164C11.6792 48.8228 11.1456 48.6018 10.5893 48.6018H0V58.0079H1.88528V50.2031H10.6863C10.7135 50.2031 10.7403 50.2085 10.7654 50.2189C10.7904 50.2293 10.8132 50.2446 10.8323 50.2639C10.8515 50.2831 10.8666 50.306 10.8769 50.3311C10.8871 50.3563 10.8923 50.3832 10.8921 50.4103V52.7461C10.8921 52.8007 10.8705 52.8531 10.8319 52.8917C10.7933 52.9303 10.7409 52.952 10.6863 52.952H5.20877L10.8069 57.9843H13.5077L9.77645 54.6006ZM66.4804 58H66.7727C66.7838 58.0001 66.7947 57.9965 66.8036 57.9899C66.8125 57.9832 66.819 57.9738 66.8221 57.9632C66.8252 57.9525 66.8248 57.9411 66.8208 57.9307C66.8169 57.9203 66.8097 57.9115 66.8002 57.9056L66.4423 57.68L59.6249 53.2996L66.3991 48.9493L66.7806 48.708C66.7912 48.7008 66.7992 48.6904 66.8034 48.6783C66.8077 48.6663 66.8081 48.6532 66.8044 48.6409C66.8008 48.6287 66.7933 48.6179 66.7831 48.6101C66.773 48.6024 66.7606 48.5981 66.7478 48.5978H63.8635C63.8304 48.5976 63.7983 48.6093 63.7731 48.6306L57.5168 52.3959L55.6813 52.4025V48.6844C55.6813 48.6616 55.6724 48.6398 55.6564 48.6236C55.6405 48.6074 55.6188 48.5982 55.5961 48.5978H54.011C53.9997 48.5978 53.9884 48.6001 53.9779 48.6044C53.9674 48.6088 53.9579 48.6151 53.9498 48.6232C53.9418 48.6312 53.9354 48.6408 53.9311 48.6513C53.9267 48.6618 53.9245 48.673 53.9245 48.6844V57.9134C53.9245 57.9362 53.9334 57.958 53.9494 57.9742C53.9653 57.9904 53.987 57.9997 54.0097 58H55.5935C55.6162 57.9997 55.6379 57.9904 55.6538 57.9742C55.6697 57.958 55.6787 57.9362 55.6787 57.9134V54.1586H57.4682L63.7717 57.962C63.797 57.9833 63.8291 57.995 63.8622 57.9948H66.4843L66.4804 58Z" fill="white"/>
</g>
<defs>
<clipPath id="clip0_8615_14351">
<rect width="157" height="58" fill="white"/>
</clipPath>
</defs>
</svg>
